<?xml version="1.0" encoding="UTF-8"?>
<svg xmlns="http://www.w3.org/2000/svg" xmlns:xlink="http://www.w3.org/1999/xlink" width="237px" height="237px" viewBox="0 0 237 237" version="1.1">
<g id="surface1">
<path style=" stroke:none;fill-rule:nonzero;fill:rgb(0%,0%,0%);fill-opacity:1;" d="M 158.632812 14.210938 C 158.234375 15.8125 158.234375 18.117188 158.535156 19.515625 C 159.335938 22.617188 158.535156 22.617188 153.828125 19.515625 C 151.828125 18.117188 150.125 17.214844 150.125 17.613281 C 150.125 18.816406 154.230469 25.019531 155.132812 25.019531 C 155.53125 25.019531 156.132812 26.023438 156.433594 27.222656 C 157.03125 29.324219 156.933594 29.425781 155.730469 27.722656 C 154.429688 26.121094 154.332031 26.121094 153.828125 28.125 C 153.53125 29.226562 152.828125 29.925781 152.226562 29.625 C 151.726562 29.226562 151.027344 29.425781 150.628906 30.023438 C 150.328125 30.527344 150.726562 31.027344 151.628906 31.027344 C 152.730469 31.027344 153.128906 31.625 152.628906 32.929688 C 152.226562 34.429688 152.628906 34.730469 154.628906 34.730469 C 157.332031 34.730469 157.933594 33.226562 155.929688 31.226562 C 155.03125 30.324219 155.132812 30.023438 156.332031 30.023438 C 157.433594 30.023438 158.132812 31.425781 158.632812 34.628906 C 158.933594 37.132812 159.035156 39.433594 158.734375 39.832031 C 158.433594 40.132812 158.132812 39.535156 158.132812 38.53125 C 158.132812 37.53125 157.832031 37.03125 157.433594 37.332031 C 157.132812 37.730469 156.230469 37.53125 155.53125 36.929688 C 154.429688 36.03125 153.929688 36.429688 153.128906 38.433594 C 152.226562 41.035156 150.925781 42.035156 151.429688 39.933594 C 151.527344 39.332031 151.027344 38.53125 150.425781 38.332031 C 149.726562 38.03125 149.125 38.332031 149.125 39.03125 C 149.125 39.632812 148.625 39.832031 148.125 39.535156 C 147.523438 39.132812 147.925781 37.832031 149.226562 36.230469 L 151.328125 33.527344 L 148.625 33.226562 C 145.421875 32.828125 143.121094 33.527344 143.121094 35.03125 C 143.121094 35.628906 143.621094 35.832031 144.320312 35.429688 C 144.921875 35.03125 145.121094 35.128906 144.820312 35.832031 C 143.621094 37.632812 147.425781 42.9375 151.226562 44.539062 C 156.03125 46.738281 164.339844 54.746094 163.9375 56.847656 C 163.738281 57.847656 162.035156 59.351562 160.136719 60.25 C 155.429688 62.554688 135.113281 66.054688 125.40625 66.15625 C 118.300781 66.257812 118 66.355469 122.101562 67.054688 C 124.605469 67.558594 129.808594 67.957031 133.613281 67.957031 C 143.621094 68.15625 152.730469 69.660156 153.730469 71.160156 C 154.03125 71.660156 155.132812 71.058594 156.230469 69.859375 C 157.433594 68.558594 158.035156 67.957031 157.832031 68.558594 C 157.53125 69.058594 158.035156 70.160156 158.734375 70.859375 C 160.035156 72.0625 160.136719 71.761719 159.632812 69.359375 C 159.132812 67.257812 159.234375 66.957031 160.035156 68.058594 C 160.9375 69.257812 161.136719 69.160156 161.136719 67.257812 C 161.136719 65.457031 160.636719 65.054688 157.933594 65.054688 C 154.03125 65.054688 155.132812 63.652344 160.636719 61.753906 C 162.738281 60.953125 165.039062 59.550781 165.539062 58.449219 C 166.140625 57.449219 168.242188 54.644531 170.34375 52.445312 C 175.246094 46.839844 176.949219 43.335938 177.25 37.933594 C 177.449219 34.328125 177.050781 32.929688 175.347656 31.226562 C 172.644531 28.523438 172.546875 27.023438 174.949219 26.921875 C 175.847656 26.824219 175.347656 26.523438 173.648438 26.121094 C 172.046875 25.722656 170.742188 24.921875 170.84375 24.320312 C 170.945312 23.71875 169.042969 22.71875 166.640625 22.117188 C 162.539062 21.117188 162.136719 20.71875 160.734375 16.214844 C 159.433594 11.710938 159.335938 11.609375 158.632812 14.210938 Z M 163.738281 27.523438 C 164.339844 29.125 162.539062 32.027344 161.035156 32.027344 C 160.035156 32.027344 159.835938 27.625 160.835938 26.722656 C 161.9375 25.621094 163.136719 25.921875 163.738281 27.523438 Z M 168.042969 34.527344 C 168.042969 35.03125 167.441406 34.628906 166.640625 33.628906 C 165.839844 32.527344 165.140625 30.925781 165.140625 30.125 C 165.238281 28.425781 168.042969 32.726562 168.042969 34.527344 Z M 168.042969 34.527344 "/>
<path style=" stroke:none;fill-rule:nonzero;fill:rgb(0%,0%,0%);fill-opacity:1;" d="M 167.640625 17.015625 C 167.339844 17.515625 167.441406 18.015625 168.042969 18.015625 C 168.542969 18.015625 169.34375 17.515625 169.644531 17.015625 C 169.945312 16.414062 169.84375 16.011719 169.242188 16.011719 C 168.742188 16.011719 167.941406 16.414062 167.640625 17.015625 Z M 167.640625 17.015625 "/>
<path style=" stroke:none;fill-rule:nonzero;fill:rgb(0%,0%,0%);fill-opacity:1;" d="M 172.144531 18.414062 C 172.144531 19.316406 175.148438 19.816406 175.648438 19.015625 C 176.046875 18.414062 175.347656 18.015625 174.246094 18.015625 C 173.046875 18.015625 172.144531 18.214844 172.144531 18.414062 Z M 172.144531 18.414062 "/>
<path style=" stroke:none;fill-rule:nonzero;fill:rgb(0%,0%,0%);fill-opacity:1;" d="M 145.722656 30.527344 C 143.820312 32.027344 143.820312 32.027344 145.921875 32.027344 C 147.222656 32.027344 148.125 31.425781 148.125 30.527344 C 148.125 28.722656 148.125 28.722656 145.722656 30.527344 Z M 145.722656 30.527344 "/>
<path style=" stroke:none;fill-rule:nonzero;fill:rgb(0%,0%,0%);fill-opacity:1;" d="M 73.0625 57.847656 C 73.0625 59.050781 74.964844 60.449219 75.664062 59.75 C 75.863281 59.550781 75.464844 58.75 74.5625 58.050781 C 73.664062 57.25 73.0625 57.25 73.0625 57.847656 Z M 73.0625 57.847656 "/>
<path style=" stroke:none;fill-rule:nonzero;fill:rgb(0%,0%,0%);fill-opacity:1;" d="M 146.625 73.0625 C 146.925781 73.5625 147.425781 74.0625 147.726562 74.0625 C 147.925781 74.0625 148.125 73.5625 148.125 73.0625 C 148.125 72.460938 147.625 72.0625 147.023438 72.0625 C 146.523438 72.0625 146.324219 72.460938 146.625 73.0625 Z M 146.625 73.0625 "/>
<path style=" stroke:none;fill-rule:nonzero;fill:rgb(0%,0%,0%);fill-opacity:1;" d="M 152.328125 78.964844 C 151.226562 79.667969 151.226562 79.867188 152.527344 80.367188 C 153.53125 80.769531 154.128906 80.46875 154.128906 79.566406 C 154.128906 77.867188 154.03125 77.867188 152.328125 78.964844 Z M 152.328125 78.964844 "/>
<path style=" stroke:none;fill-rule:nonzero;fill:rgb(0%,0%,0%);fill-opacity:1;" d="M 156.632812 88.574219 C 156.132812 88.773438 154.53125 89.175781 153.128906 89.476562 C 150.527344 89.976562 148.925781 93.578125 147.523438 101.585938 C 147.222656 103.1875 146.324219 105.289062 145.523438 106.089844 C 142.121094 109.492188 140.019531 101.386719 142.621094 94.78125 C 143.121094 93.480469 142.820312 93.078125 141.320312 93.078125 C 139.917969 93.078125 139.417969 93.777344 139.417969 95.679688 C 139.417969 97.082031 138.816406 98.785156 138.117188 99.382812 C 137.117188 100.382812 137.015625 99.882812 137.316406 97.28125 C 137.617188 94.878906 137.316406 93.679688 136.113281 93.078125 C 134.113281 91.976562 133.113281 92.679688 133.113281 95.28125 C 133.113281 96.480469 132.410156 97.082031 130.910156 97.082031 C 129.710938 97.082031 127.90625 97.78125 126.90625 98.785156 C 125.207031 100.285156 125.003906 100.183594 122.804688 97.683594 C 120.203125 94.679688 116.597656 94.980469 117.398438 98.082031 C 117.699219 99.382812 117.398438 99.683594 115.796875 99.285156 C 114.398438 98.984375 113.996094 99.183594 114.496094 99.882812 C 114.898438 100.585938 115.996094 101.085938 117 101.085938 C 118.898438 101.085938 122.101562 104.085938 122.101562 105.890625 C 122.101562 107.390625 111.195312 113.09375 109.492188 112.394531 C 108.292969 111.996094 108.292969 111.59375 109.292969 110.292969 C 110.394531 108.992188 110.292969 108.890625 108.089844 109.59375 C 106.691406 109.992188 105.289062 110.894531 104.789062 111.492188 C 104.289062 112.195312 103.386719 111.792969 102.1875 110.09375 C 101.085938 108.691406 99.882812 107.992188 99.484375 108.390625 C 99.082031 108.792969 98.183594 108.589844 97.382812 107.890625 C 96.28125 106.992188 96.179688 107.191406 96.679688 108.691406 C 97.28125 110.292969 96.980469 110.191406 94.78125 108.191406 C 91.175781 104.886719 90.476562 102.386719 92.679688 99.984375 C 94.28125 98.183594 94.28125 98.082031 91.777344 98.082031 C 89.777344 98.082031 88.875 97.28125 87.472656 94.078125 C 86.472656 91.878906 85.171875 90.175781 84.671875 90.375 C 83.371094 90.875 83.769531 111.09375 85.070312 112.496094 C 85.570312 112.996094 87.273438 112.894531 89.175781 112.195312 C 91.777344 111.292969 92.878906 111.394531 94.679688 112.59375 C 95.980469 113.394531 97.683594 114.097656 98.582031 114.097656 C 99.484375 114.097656 100.085938 114.996094 100.085938 116.296875 C 100.085938 118.300781 99.984375 118.300781 98.183594 116.597656 C 96.28125 114.996094 96.179688 114.996094 96.28125 117.199219 C 96.480469 120.402344 102.886719 127.105469 105.789062 127.105469 C 107.191406 127.105469 108.089844 127.707031 108.089844 128.609375 C 108.089844 129.410156 107.589844 130.109375 106.890625 130.109375 C 106.191406 130.109375 107.492188 131.910156 109.59375 134.113281 C 111.792969 136.414062 114.496094 138.117188 115.699219 138.117188 C 117 138.117188 118.101562 138.816406 118.398438 139.816406 C 118.800781 141.519531 118.800781 141.519531 119.601562 139.816406 C 120.101562 138.71875 119.800781 137.414062 118.699219 136.214844 C 115.597656 132.8125 116.398438 131.910156 122.601562 131.710938 C 125.003906 131.609375 125.605469 131.210938 125.40625 129.609375 C 125.003906 126.507812 126.304688 125.304688 130.308594 125.003906 C 134.613281 124.605469 138.214844 127.207031 137.414062 130.109375 C 136.714844 132.613281 137.816406 137.117188 139.117188 137.117188 C 139.71875 137.117188 140.117188 136.414062 140.117188 135.613281 C 140.117188 134.8125 140.617188 134.113281 141.117188 134.113281 C 141.71875 134.113281 142.121094 134.511719 142.121094 135.113281 C 142.121094 135.613281 142.820312 136.113281 143.621094 136.113281 C 145.523438 136.113281 145.523438 138.816406 143.621094 142.121094 C 142.820312 143.519531 142.21875 145.722656 142.121094 147.125 C 142.121094 150.628906 139.917969 157.933594 139.417969 156.332031 C 138.917969 155.03125 135.113281 159.035156 135.113281 160.835938 C 135.113281 161.4375 134.011719 162.335938 132.613281 162.9375 C 130.308594 164.039062 128.207031 168.542969 129.507812 169.84375 C 129.808594 170.242188 132.511719 170.34375 135.414062 170.242188 C 138.816406 170.144531 141.320312 170.542969 142.621094 171.542969 C 143.820312 172.546875 144.121094 173.046875 143.320312 173.144531 C 142.519531 173.144531 142.21875 173.847656 142.519531 174.949219 C 142.921875 175.949219 142.019531 179.550781 140.617188 182.953125 C 139.21875 186.355469 137.617188 191.363281 137.015625 194.0625 C 135.914062 199.367188 135.816406 199.367188 126.90625 200.667969 C 124.304688 201.070312 122.003906 201.96875 121.703125 202.769531 C 121.003906 204.671875 117.097656 204.574219 117.097656 202.671875 C 117.097656 201.671875 116.097656 201.167969 113.894531 201.167969 C 109.894531 201.167969 104.289062 199.769531 97.582031 197.066406 C 91.476562 194.664062 87.074219 189.359375 87.074219 184.457031 C 87.074219 180.851562 85.773438 180.152344 84.070312 182.953125 C 83.269531 184.15625 82.769531 184.355469 82.46875 183.355469 C 81.96875 182.152344 76.964844 179.152344 75.464844 179.152344 C 75.164062 179.152344 75.164062 180.253906 75.464844 181.652344 C 75.964844 183.453125 75.664062 184.355469 74.5625 184.757812 C 73.761719 185.15625 73.0625 185.957031 73.0625 186.757812 C 73.0625 187.558594 72.460938 188.160156 71.660156 188.160156 C 70.859375 188.160156 69.859375 188.660156 69.457031 189.359375 C 68.957031 190.058594 69.257812 190.261719 70.257812 189.960938 C 71.058594 189.558594 72.359375 189.761719 73.160156 190.261719 C 74.460938 191.0625 72.160156 191.5625 67.457031 191.460938 C 66.855469 191.460938 65.855469 192.261719 65.15625 193.261719 C 64.554688 194.363281 64.453125 195.164062 64.953125 195.164062 C 65.457031 195.164062 66.15625 194.5625 66.355469 193.863281 C 66.65625 193.164062 66.957031 193.363281 66.957031 194.363281 C 67.054688 195.664062 66.257812 196.164062 64.554688 196.164062 C 62.753906 196.164062 62.253906 196.566406 62.652344 197.667969 C 63.054688 198.46875 62.753906 199.167969 62.152344 199.167969 C 60.050781 199.167969 60.953125 205.671875 63.351562 207.976562 C 66.855469 211.277344 77.367188 213.179688 88.175781 212.480469 L 97.082031 211.878906 L 94.078125 210.078125 C 89.875 207.476562 89.875 204.972656 94.179688 207.175781 C 96.582031 208.476562 96.679688 207.074219 94.578125 201.167969 C 92.679688 195.765625 92.679688 195.867188 95.082031 197.167969 C 96.28125 197.765625 97.582031 199.46875 98.183594 200.96875 C 98.683594 202.472656 99.382812 204.371094 99.785156 205.171875 C 100.085938 205.972656 100.285156 207.175781 100.183594 207.773438 C 99.984375 209.078125 108.089844 212.179688 111.59375 212.179688 C 113.195312 212.179688 113.695312 211.578125 113.597656 209.375 C 113.597656 206.675781 113.597656 206.675781 120.101562 206.875 C 123.703125 206.875 127.40625 206.976562 128.308594 207.074219 C 129.210938 207.175781 130.308594 208.074219 130.609375 209.277344 C 131.210938 211.078125 131.8125 211.277344 135.414062 210.679688 C 140.71875 209.777344 143.121094 208.476562 143.121094 206.574219 C 143.121094 205.472656 143.722656 205.273438 145.023438 205.671875 C 146.722656 206.175781 146.925781 205.773438 146.722656 201.46875 C 146.625 198.667969 147.125 195.964844 147.925781 194.964844 C 149.324219 193.363281 149.925781 187.957031 152.128906 158.132812 C 153.128906 145.621094 156.03125 127.507812 159.035156 115.097656 C 161.035156 107.191406 161.234375 105.890625 160.234375 106.488281 C 159.734375 106.890625 159.535156 103.386719 159.835938 97.582031 C 160.335938 87.972656 160.136719 87.375 156.632812 88.574219 Z M 77.066406 192.664062 C 77.066406 193.464844 76.863281 194.164062 76.664062 194.164062 C 76.464844 194.164062 76.0625 193.464844 75.664062 192.664062 C 75.363281 191.863281 75.5625 191.160156 76.0625 191.160156 C 76.664062 191.160156 77.066406 191.863281 77.066406 192.664062 Z M 77.066406 192.664062 "/>
<path style=" stroke:none;fill-rule:nonzero;fill:rgb(0%,0%,0%);fill-opacity:1;" d="M 78.566406 99.984375 C 77.964844 102.085938 78.867188 110.695312 79.867188 112.496094 C 80.96875 114.398438 81.867188 109.492188 81.367188 104.589844 C 80.769531 98.882812 79.566406 96.882812 78.566406 99.984375 Z M 78.566406 99.984375 "/>
<path style=" stroke:none;fill-rule:nonzero;fill:rgb(0%,0%,0%);fill-opacity:1;" d="M 94.679688 123.605469 C 95.082031 124.40625 95.679688 124.804688 96.179688 124.503906 C 97.28125 123.90625 96.382812 122.101562 95.082031 122.101562 C 94.578125 122.101562 94.378906 122.804688 94.679688 123.605469 Z M 94.679688 123.605469 "/>
<path style=" stroke:none;fill-rule:nonzero;fill:rgb(0%,0%,0%);fill-opacity:1;" d="M 95.679688 130.710938 C 94.679688 133.210938 94.980469 134.113281 96.582031 134.113281 C 97.382812 134.113281 98.082031 133.210938 98.082031 132.210938 C 98.082031 129.609375 96.480469 128.707031 95.679688 130.710938 Z M 95.679688 130.710938 "/>
<path style=" stroke:none;fill-rule:nonzero;fill:rgb(0%,0%,0%);fill-opacity:1;" d="M 132.613281 145.121094 C 131.609375 146.222656 131.109375 147.125 131.511719 147.125 C 132.914062 147.125 136.113281 145.023438 136.113281 144.121094 C 136.113281 142.519531 134.511719 143.019531 132.613281 145.121094 Z M 132.613281 145.121094 "/>
<path style=" stroke:none;fill-rule:nonzero;fill:rgb(0%,0%,0%);fill-opacity:1;" d="M 93.980469 154.929688 C 95.480469 157.632812 103.085938 164.640625 103.085938 163.335938 C 103.085938 162.636719 103.789062 162.4375 104.886719 162.835938 C 106.488281 163.4375 106.488281 163.335938 104.789062 161.4375 C 102.085938 158.332031 92.777344 152.730469 93.980469 154.929688 Z M 93.980469 154.929688 "/>
<path style=" stroke:none;fill-rule:nonzero;fill:rgb(0%,0%,0%);fill-opacity:1;" d="M 90.875 183.855469 C 91.578125 184.15625 92.476562 184.054688 92.777344 183.753906 C 93.179688 183.453125 92.578125 183.15625 91.476562 183.253906 C 90.375 183.253906 90.074219 183.554688 90.875 183.855469 Z M 90.875 183.855469 "/>
<path style=" stroke:none;fill-rule:nonzero;fill:rgb(0%,0%,0%);fill-opacity:1;" d="M 92.878906 185.855469 C 91.277344 186.257812 90.277344 189.160156 91.675781 189.160156 C 92.976562 189.160156 96.082031 187.058594 96.082031 186.15625 C 96.082031 185.15625 95.78125 185.054688 92.878906 185.855469 Z M 92.878906 185.855469 "/>
<path style=" stroke:none;fill-rule:nonzero;fill:rgb(0%,0%,0%);fill-opacity:1;" d="M 149.425781 200.167969 C 148.023438 207.675781 147.222656 208.476562 137.617188 211.378906 C 130.109375 213.679688 116.796875 214.28125 105.589844 212.980469 C 100.585938 212.277344 99.882812 212.378906 101.585938 213.480469 C 104.988281 215.582031 145.621094 215.082031 156.03125 212.878906 C 166.140625 210.679688 172.144531 208.375 172.144531 206.675781 C 172.144531 204.972656 170.144531 204.171875 160.136719 202.171875 C 151.628906 200.570312 151.628906 200.570312 151.128906 197.167969 C 150.726562 194.0625 150.527344 194.464844 149.425781 200.167969 Z M 149.425781 200.167969 "/>
</g>
</svg>
